<?xml version="1.0" encoding="UTF-8" standalone="no"?>
<!-- Created with Inkscape (http://www.inkscape.org/) -->

<svg
   xmlns:dc="http://purl.org/dc/elements/1.1/"
   xmlns:cc="http://creativecommons.org/ns#"
   xmlns:rdf="http://www.w3.org/1999/02/22-rdf-syntax-ns#"
   xmlns:svg="http://www.w3.org/2000/svg"
   xmlns="http://www.w3.org/2000/svg"
   xmlns:sodipodi="http://sodipodi.sourceforge.net/DTD/sodipodi-0.dtd"
   xmlns:inkscape="http://www.inkscape.org/namespaces/inkscape"
   width="210mm"
   height="297mm"
   viewBox="0 0 210 297"
   version="1.1"
   id="svg8"
   inkscape:version="0.92.4 (5da689c313, 2019-01-14)"
   sodipodi:docname="Iniciales.svg">
  <defs
     id="defs2" />
  <sodipodi:namedview
     id="base"
     pagecolor="#ffffff"
     bordercolor="#666666"
     borderopacity="1.0"
     inkscape:pageopacity="0.0"
     inkscape:pageshadow="2"
     inkscape:zoom="0.35"
     inkscape:cx="1135.0342"
     inkscape:cy="560"
     inkscape:document-units="mm"
     inkscape:current-layer="layer1"
     showgrid="false"
     inkscape:snap-text-baseline="true"
     inkscape:window-width="1024"
     inkscape:window-height="705"
     inkscape:window-x="-8"
     inkscape:window-y="-8"
     inkscape:window-maximized="1" />
  <metadata
     id="metadata5">
    <rdf:RDF>
      <cc:Work
         rdf:about="">
        <dc:format>image/svg+xml</dc:format>
        <dc:type
           rdf:resource="http://purl.org/dc/dcmitype/StillImage" />
        <dc:title></dc:title>
      </cc:Work>
    </rdf:RDF>
  </metadata>
  <g
     inkscape:label="Capa 1"
     inkscape:groupmode="layer"
     id="layer1">
    <path
       sodipodi:type="star"
       style="fill:#0000ff;stroke-width:0.26458332"
       id="path3862"
       sodipodi:sides="5"
       sodipodi:cx="64.895103"
       sodipodi:cy="111.52626"
       sodipodi:r1="67.892769"
       sodipodi:r2="33.946384"
       sodipodi:arg1="0.65909005"
       sodipodi:arg2="1.2874086"
       inkscape:flatsided="false"
       inkscape:rounded="0"
       inkscape:randomized="0"
       d="M 118.56772,153.10364 74.386847,144.11865 41.938417,175.42007 36.83101,130.62505 -2.9655246,109.43743 38.058796,90.737571 45.911615,46.341483 76.373447,79.579357 121.02329,73.328686 98.825417,112.57068 Z"
       inkscape:transform-center-x="5.0058215"
       inkscape:transform-center-y="-0.48089705"
       transform="matrix(0.85332985,0,0,0.74500973,6.3253202,-31.291782)" />
    <ellipse
       style="fill:#00ff00;stroke-width:0.19289058"
       id="path3795"
       cx="57.520351"
       cy="50.429436"
       rx="32.505951"
       ry="17.764879" />
    <path
       id="text3715"
       style="font-style:normal;font-variant:normal;font-weight:bold;font-stretch:normal;font-size:16.93333244px;line-height:1.25;font-family:sans-serif;-inkscape-font-specification:'sans-serif, Bold';font-variant-ligatures:normal;font-variant-caps:normal;font-variant-numeric:normal;font-feature-settings:normal;text-align:start;letter-spacing:0px;word-spacing:0px;writing-mode:lr-tb;text-anchor:start;fill:#000000;fill-opacity:1;stroke:none;stroke-width:0.35696229"
       d="m 56.575285,40.556578 c -1.25915,0 -2.42201,0.2016 -3.48859,0.60481 -1.05916,0.40321 -1.94798,0.97442 -2.666432,1.71364 -0.748081,0.76908 -1.318403,1.69123 -1.710963,2.76645 -0.392557,1.07522 -0.588838,2.27363 -0.588838,3.59525 0,1.41869 0.203687,2.66939 0.611058,3.75206 0.414782,1.08268 0.996214,1.98616 1.744295,2.71045 0.74808,0.72427 1.6406,1.26935 2.67755,1.63522 1.04436,0.36589 2.18129,0.54882 3.41082,0.54882 0.82955,0 1.48136,-0.041 1.95538,-0.12314 0.47404,-0.0821 0.98141,-0.2016 1.5221,-0.35841 0.41476,-0.11947 0.81104,-0.26133 1.18877,-0.42561 0.37775,-0.16426 0.77402,-0.33973 1.1888,-0.5264 v -3.98727 h -0.44441 c -0.19997,0.17922 -0.45551,0.39201 -0.7666,0.63842 -0.31107,0.24639 -0.6481,0.47788 -1.01102,0.6944 -0.42961,0.26881 -0.89993,0.48162 -1.411,0.63842 -0.50365,0.1568 -1.01471,0.23522 -1.53319,0.23522 -0.54069,0 -1.0888,-0.0859 -1.64431,-0.25762 -0.5555,-0.17921 -1.05916,-0.47415 -1.51098,-0.88481 -0.44441,-0.4032 -0.81475,-0.95575 -1.11102,-1.65763 -0.28885,-0.70188 -0.4333,-1.5755 -0.4333,-2.62085 0,-1.00055 0.13334,-1.85175 0.39998,-2.55363 0.27405,-0.70189 0.62957,-1.26562 1.06657,-1.69123 0.45922,-0.44053 0.95918,-0.75415 1.49987,-0.94083 0.54069,-0.19412 1.11103,-0.2912 1.71097,-0.2912 0.5407,0 1.04806,0.0821 1.52209,0.24641 0.47404,0.16427 0.91473,0.36586 1.3221,0.60481 0.39997,0.23894 0.7555,0.48162 1.06659,0.72802 0.31848,0.2464 0.58141,0.45921 0.78881,0.63841 h 0.48885 v -4.04328 c -0.30368,-0.14935 -0.65921,-0.30988 -1.06659,-0.48162 -0.39994,-0.1792 -0.84806,-0.33973 -1.34431,-0.4816 -0.47403,-0.12693 -0.99251,-0.22774 -1.55543,-0.30241 -0.55552,-0.0821 -1.18137,-0.12313 -1.87762,-0.12313 z m -25.30893,0.3248 v 16.6771 h 4.244081 v -6.11532 h 1.966497 l 4.510725,6.11532 h 5.210662 l -5.521748,-7.14572 c 1.051764,-0.51521 1.859103,-1.16109 2.422014,-1.93764 0.570323,-0.77654 0.85548,-1.78082 0.85548,-3.01284 0,-0.89602 -0.185166,-1.63897 -0.555506,-2.22885 -0.362931,-0.59735 -0.855482,-1.08269 -1.47765,-1.45603 -0.614759,-0.37334 -1.273963,-0.61601 -1.977607,-0.72801 -0.703641,-0.11202 -1.544312,-0.16801 -2.522006,-0.16801 z m 34.30817,0 v 16.6771 h 4.24406 v -6.11532 h 1.96651 l 4.51072,6.11532 h 5.21067 l -5.52174,-7.14572 c 1.05175,-0.51521 1.8591,-1.16109 2.42199,-1.93764 0.57033,-0.77654 0.8555,-1.78082 0.8555,-3.01284 0,-0.89602 -0.18516,-1.63897 -0.5555,-2.22885 -0.36295,-0.59735 -0.85549,-1.08269 -1.47766,-1.45603 -0.61476,-0.37334 -1.27397,-0.61601 -1.97761,-0.72801 -0.70364,-0.11202 -1.54432,-0.16801 -2.522,-0.16801 z m -30.064089,3.06887 h 1.544312 c 0.511067,0 0.959178,0.0149 1.34433,0.0448 0.385154,0.0224 0.722159,0.0933 1.011023,0.21281 0.414779,0.17174 0.70735,0.40695 0.877702,0.70561 0.170357,0.29868 0.255532,0.65708 0.255532,1.07522 0,0.47041 -0.07036,0.84748 -0.211092,1.13121 -0.133324,0.27628 -0.348113,0.53016 -0.644388,0.76162 -0.311086,0.23894 -0.696238,0.39201 -1.155456,0.45921 -0.459217,0.0672 -1.029539,0.10078 -1.710963,0.10078 h -1.311 z m 34.308149,0 h 1.54432 c 0.51108,0 0.95918,0.0149 1.34434,0.0448 0.38516,0.0224 0.72215,0.0933 1.01102,0.21281 0.41478,0.17174 0.70734,0.40695 0.8777,0.70561 0.17036,0.29868 0.25554,0.65708 0.25554,1.07522 0,0.47041 -0.0704,0.84748 -0.2111,1.13121 -0.1333,0.27628 -0.3481,0.53016 -0.64438,0.76162 -0.31109,0.23894 -0.69623,0.39201 -1.15547,0.45921 -0.4592,0.0672 -1.02953,0.10078 -1.71096,0.10078 h -1.31101 z"
       inkscape:connector-curvature="0" />
  </g>
  <g
     inkscape:groupmode="layer"
     id="layer2"
     inkscape:label="Capa 2" />
  <g
     inkscape:groupmode="layer"
     id="layer3"
     inkscape:label="Capa 3" />
</svg>
